<?xml version="1.0" standalone="no"?>
<!DOCTYPE svg PUBLIC "-//W3C//DTD SVG 20010904//EN"
 "http://www.w3.org/TR/2001/REC-SVG-20010904/DTD/svg10.dtd">
<svg version="1.0" xmlns="http://www.w3.org/2000/svg"
 width="500.000000pt" height="243.000000pt" viewBox="0 0 500.000000 243.000000"
 preserveAspectRatio="xMidYMid meet">

<g transform="translate(0.000000,243.000000) scale(0.100000,-0.100000)"
fill="#000000" stroke="none">
<path d="M1920 1651 c0 -167 0 -170 26 -200 14 -17 42 -35 62 -41 50 -13 934
-13 984 0 20 6 48 24 62 41 26 30 26 33 26 201 l0 170 -70 -4 c-89 -5 -112
-24 -120 -101 l-5 -52 -387 -3 -388 -2 0 46 c0 25 -5 54 -10 65 -17 30 -64 49
-125 49 l-55 0 0 -169z"/>
<path d="M2050 1315 c0 -32 3 -35 29 -35 29 0 41 14 41 51 0 15 -7 19 -35 19
-33 0 -35 -2 -35 -35z"/>
<path d="M2882 1318 c3 -29 7 -33 36 -36 31 -3 32 -2 32 32 0 35 -1 36 -36 36
-34 0 -35 -1 -32 -32z"/>
<path d="M725 1075 c-19 -18 -25 -35 -25 -65 0 -80 86 -119 147 -65 31 27 13
35 -21 10 -65 -49 -138 35 -90 103 18 27 69 30 95 6 28 -25 47 -12 21 14 -31
31 -95 30 -127 -3z"/>
<path d="M965 1074 c-53 -57 -12 -154 63 -154 58 1 92 38 92 100 0 74 -103
110 -155 54z m109 -10 c46 -45 18 -119 -44 -119 -24 0 -38 7 -53 27 -34 45 -3
108 53 108 16 0 36 -7 44 -16z"/>
<path d="M1200 1010 c0 -53 4 -90 10 -90 6 0 10 31 10 73 l1 72 45 -72 c63
-99 74 -96 74 17 0 73 -3 90 -15 90 -12 0 -15 -14 -15 -67 l0 -68 -45 68 c-25
37 -50 67 -55 67 -6 0 -10 -38 -10 -90z"/>
<path d="M1420 1010 c0 -53 4 -90 10 -90 6 0 10 18 10 40 0 39 1 40 35 40 19
0 35 5 35 10 0 6 -16 10 -35 10 -32 0 -35 2 -35 30 0 28 2 30 40 30 22 0 40 5
40 10 0 6 -22 10 -50 10 l-50 0 0 -90z"/>
<path d="M1590 1010 c0 -73 3 -90 15 -90 12 0 15 17 15 90 0 73 -3 90 -15 90
-12 0 -15 -17 -15 -90z"/>
<path d="M1696 1084 c-3 -9 -6 -23 -6 -32 1 -15 3 -14 15 2 17 22 20 46 6 46
-5 0 -12 -7 -15 -16z"/>
<path d="M1805 1076 c-22 -33 -10 -52 41 -72 36 -14 44 -21 42 -38 -4 -27 -47
-34 -64 -11 -20 26 -37 14 -19 -13 23 -31 79 -31 100 2 22 33 9 55 -42 77 -32
14 -44 24 -41 36 4 22 44 29 64 12 19 -16 30 -4 14 16 -20 24 -77 19 -95 -9z"/>
<path d="M2123 1078 c-30 -33 -36 -62 -19 -101 25 -61 93 -77 143 -32 31 27
13 35 -21 10 -46 -35 -106 -2 -106 58 0 20 8 41 18 50 23 21 75 22 92 2 7 -8
19 -15 28 -15 12 0 10 6 -8 25 -32 34 -97 35 -127 3z"/>
<path d="M2365 1075 c-19 -18 -25 -35 -25 -65 0 -85 90 -121 151 -61 37 37 38
79 3 120 -34 41 -92 44 -129 6z m107 -12 c23 -20 24 -80 1 -105 -37 -41 -113
-7 -113 50 0 63 67 96 112 55z"/>
<path d="M2590 1011 c0 -74 3 -91 15 -91 12 0 15 14 15 63 l1 62 27 -62 c15
-35 32 -63 37 -63 6 0 22 28 37 63 l27 62 1 -62 c0 -49 3 -63 15 -63 12 0 15
17 15 90 0 113 -14 118 -60 19 -17 -38 -35 -68 -38 -65 -3 4 -18 34 -33 69
-15 34 -35 63 -43 65 -14 3 -16 -10 -16 -87z"/>
<path d="M2860 1010 c0 -53 4 -90 10 -90 6 0 10 18 10 40 0 39 1 40 34 40 38
0 66 21 66 49 0 29 -33 51 -78 51 l-42 0 0 -90z m88 38 c3 -26 1 -28 -32 -28
-33 0 -36 2 -36 31 0 28 2 30 33 27 27 -2 33 -8 35 -30z"/>
<path d="M3050 1010 c0 -73 3 -90 15 -90 11 0 15 11 15 40 l0 40 45 0 45 0 0
-40 c0 -22 5 -40 10 -40 6 0 10 37 10 90 0 53 -4 90 -10 90 -5 0 -10 -18 -10
-40 l0 -40 -45 0 -45 0 0 40 c0 29 -4 40 -15 40 -12 0 -15 -17 -15 -90z"/>
<path d="M3290 1040 c16 -33 30 -73 30 -90 0 -16 5 -30 10 -30 6 0 10 16 10
36 0 22 12 57 31 90 22 39 26 54 16 54 -8 0 -22 -18 -32 -40 -10 -22 -21 -40
-25 -40 -4 0 -15 18 -25 40 -10 22 -24 40 -32 40 -9 0 -5 -17 17 -60z"/>
<path d="M3580 1010 l0 -90 41 0 c55 0 79 15 79 48 0 16 -5 33 -11 39 -8 8 -8
13 0 17 15 9 14 49 -1 64 -7 7 -34 12 -60 12 l-48 0 0 -90z m94 53 c8 -21 -18
-43 -51 -43 -19 0 -23 5 -23 30 0 27 3 30 34 30 23 0 36 -6 40 -17z m1 -93 c0
-22 -5 -25 -37 -28 -36 -3 -38 -2 -38 28 0 30 2 31 38 28 32 -3 37 -6 37 -28z"/>
<path d="M3780 1010 l0 -90 50 0 c28 0 50 5 50 10 0 6 -18 10 -40 10 -38 0
-40 2 -40 30 0 28 3 30 35 30 19 0 35 5 35 10 0 6 -16 10 -35 10 -32 0 -35 2
-35 30 0 28 2 30 40 30 22 0 40 5 40 10 0 6 -22 10 -50 10 l-50 0 0 -90z"/>
<path d="M3960 1010 l0 -90 46 0 c57 0 104 40 104 90 0 50 -47 90 -104 90
l-46 0 0 -90z m102 53 c11 -10 18 -30 18 -54 0 -44 -27 -69 -72 -69 -28 0 -28
0 -28 70 l0 70 32 0 c17 0 40 -7 50 -17z"/>
<path d="M4192 1088 c-16 -16 -15 -53 2 -67 8 -7 27 -16 43 -20 21 -6 28 -14
28 -32 0 -19 -6 -25 -28 -27 -18 -2 -29 2 -33 12 -8 20 -24 21 -24 1 0 -35 76
-47 104 -16 27 29 16 54 -34 78 -29 14 -45 28 -45 40 0 22 39 30 61 12 19 -16
30 -4 14 16 -15 18 -71 20 -88 3z"/>
<path d="M1160 801 c0 -10 9 -21 20 -24 11 -3 20 -11 20 -17 0 -7 -8 -10 -20
-7 -11 3 -20 1 -20 -5 0 -5 10 -8 22 -6 30 4 35 34 9 43 -27 8 -27 29 -1 22
11 -3 18 -1 14 4 -10 17 -44 10 -44 -10z"/>
<path d="M1312 783 c-2 -39 0 -43 21 -42 16 1 17 3 5 6 -11 3 -18 17 -21 41
l-4 37 -1 -42z"/>
<path d="M1450 780 c0 -35 3 -40 23 -39 16 1 18 2 5 6 -10 2 -18 11 -18 18 0
7 8 16 18 18 16 4 16 5 0 6 -10 0 -18 5 -18 10 0 5 8 12 18 14 13 4 11 5 -5 6
-20 1 -23 -4 -23 -39z"/>
<path d="M1590 780 c0 -37 2 -40 28 -39 23 2 24 2 5 6 -27 5 -31 30 -5 36 16
4 16 5 0 6 -10 0 -18 5 -18 10 0 5 8 12 18 14 13 4 11 5 -5 6 -20 1 -23 -4
-23 -39z"/>
<path d="M1740 779 c0 -23 3 -39 7 -36 3 4 6 20 5 37 0 21 4 30 15 30 9 0 13
-6 9 -15 -3 -8 -1 -15 5 -15 20 0 3 35 -19 38 -20 3 -22 -1 -22 -39z"/>
<path d="M2012 780 c13 -48 22 -51 35 -7 l10 32 7 -32 c9 -39 21 -42 30 -9 3
13 9 32 12 43 5 12 4 15 -4 8 -5 -5 -12 -19 -14 -30 -4 -18 -6 -17 -16 8 -13
30 -32 28 -32 -4 0 -10 -4 -19 -10 -19 -5 0 -10 9 -10 19 0 11 -4 22 -9 25 -5
3 -4 -12 1 -34z"/>
<path d="M2210 780 c0 -35 3 -40 23 -39 16 1 18 2 5 6 -10 2 -18 11 -18 18 0
7 8 16 18 18 16 4 16 5 0 6 -10 0 -18 5 -18 10 0 5 8 12 18 14 13 4 11 5 -5 6
-20 1 -23 -4 -23 -39z"/>
<path d="M2352 783 c-2 -39 0 -43 21 -42 16 1 17 3 5 6 -11 3 -18 17 -21 41
l-4 37 -1 -42z"/>
<path d="M2492 783 c-2 -39 0 -43 21 -42 16 1 17 3 5 6 -11 3 -18 17 -21 41
l-4 37 -1 -42z"/>
<path d="M2852 780 c13 -48 22 -51 35 -7 l10 32 7 -32 c9 -39 21 -42 30 -9 3
13 9 32 12 43 5 12 4 15 -4 8 -5 -5 -12 -19 -14 -30 -4 -18 -6 -17 -16 8 -13
30 -32 28 -32 -4 0 -10 -4 -19 -10 -19 -5 0 -10 9 -10 19 0 11 -4 22 -9 25 -5
3 -4 -12 1 -34z"/>
<path d="M3070 816 c0 -2 -7 -21 -16 -42 -11 -27 -12 -35 -3 -26 16 15 49 16
49 0 0 -6 2 -9 5 -7 7 7 -17 79 -27 79 -4 0 -8 -2 -8 -4z m20 -37 c0 -5 -4 -9
-10 -9 -5 0 -10 7 -10 16 0 8 5 12 10 9 6 -3 10 -10 10 -16z"/>
<path d="M3212 780 c0 -29 2 -38 7 -27 6 17 8 17 20 3 7 -9 18 -16 24 -16 5 0
2 9 -7 19 -15 16 -16 23 -5 43 12 23 12 23 -9 5 -20 -18 -20 -18 -25 0 -3 10
-5 -2 -5 -27z"/>
<path d="M3370 780 c0 -35 3 -40 23 -39 16 1 18 2 5 6 -10 2 -18 11 -18 18 0
7 8 16 18 18 16 4 16 5 0 6 -10 0 -18 5 -18 10 0 5 8 12 18 14 13 4 11 5 -5 6
-20 1 -23 -4 -23 -39z"/>
<path d="M3634 780 c1 -30 4 -35 26 -35 22 0 25 4 27 40 l1 40 -6 -35 c-9 -48
-39 -53 -45 -8 l-4 33 1 -35z"/>
<path d="M3791 778 c1 -24 3 -35 6 -25 2 9 9 17 15 17 6 0 5 6 -2 15 -15 19
-7 30 15 21 10 -3 13 -11 9 -18 -5 -10 -4 -10 6 -1 17 16 4 33 -26 33 -22 0
-24 -4 -23 -42z"/>
<path d="M1983 610 c0 -25 2 -35 4 -22 2 12 2 32 0 45 -2 12 -4 2 -4 -23z"/>
<path d="M2102 610 c1 -32 2 -37 5 -16 l5 29 23 -29 24 -29 -1 45 c-1 32 -2
37 -5 16 l-5 -29 -23 29 -24 29 1 -45z"/>
<path d="M2384 638 c-4 -7 2 -18 14 -26 28 -18 29 -36 2 -29 -11 3 -18 1 -14
-4 9 -15 41 -10 48 6 4 10 -3 20 -19 27 -30 13 -33 33 -5 25 11 -3 20 -1 20 4
0 13 -38 11 -46 -3z"/>
<path d="M2537 642 c6 -4 13 -23 16 -42 l4 -35 1 37 c1 20 8 39 15 41 6 3 -1
6 -18 6 -17 0 -25 -3 -18 -7z"/>
<path d="M2689 633 c6 -12 11 -31 11 -42 0 -12 5 -21 10 -21 6 0 10 9 10 21 0
11 5 30 11 42 10 21 10 21 -5 3 -16 -20 -16 -20 -32 0 -15 18 -15 18 -5 -3z"/>
<path d="M2842 613 c-2 -39 0 -43 21 -42 16 1 17 3 5 6 -11 3 -18 17 -21 41
l-4 37 -1 -42z"/>
<path d="M2970 610 c0 -37 2 -40 28 -39 23 2 24 2 5 6 -27 5 -29 18 -5 32 16
10 16 10 0 11 -26 0 -22 18 5 23 19 4 18 4 -5 6 -26 1 -28 -2 -28 -39z"/>
</g>
</svg>
