<?xml version="1.0" standalone="no"?>
<!DOCTYPE svg PUBLIC "-//W3C//DTD SVG 20010904//EN"
 "http://www.w3.org/TR/2001/REC-SVG-20010904/DTD/svg10.dtd">
<svg version="1.0" xmlns="http://www.w3.org/2000/svg"
 width="500.000000pt" height="108.000000pt" viewBox="0 0 500.000000 108.000000"
 preserveAspectRatio="xMidYMid meet">

<g transform="translate(0.000000,108.000000) scale(0.100000,-0.100000)"
fill="#000000" stroke="none">
<path d="M0 540 l0 -540 2500 0 2500 0 0 540 0 540 -2500 0 -2500 0 0 -540z
m699 219 c12 -11 21 -24 21 -29 0 -13 -47 -13 -55 0 -9 14 -48 13 -63 -2 -7
-7 -12 -27 -12 -45 0 -26 6 -36 25 -45 20 -9 28 -8 43 5 23 21 62 22 62 3 0
-22 -49 -56 -82 -56 -61 0 -97 35 -98 95 0 50 21 82 63 93 41 11 70 5 96 -19z
m249 5 c51 -33 49 -124 -3 -158 -92 -60 -201 52 -134 138 37 48 84 54 137 20z
m925 -1 c9 -9 17 -20 17 -25 0 -12 -44 -10 -57 3 -12 12 -33 4 -33 -12 0 -5
12 -15 28 -21 62 -27 79 -63 45 -100 -20 -23 -80 -24 -105 -1 -26 23 -23 43 7
43 14 0 25 -4 25 -10 0 -5 9 -10 20 -10 34 0 22 25 -22 45 -39 18 -43 24 -43
55 0 27 6 37 25 47 28 15 67 9 93 -14z m361 -15 c18 -23 18 -23 -9 -26 -15 -2
-32 1 -38 7 -15 15 -50 14 -65 -1 -17 -17 -15 -64 4 -82 19 -20 35 -20 60 -1
48 36 75 3 28 -34 -39 -31 -89 -28 -125 8 -33 34 -38 75 -14 121 27 53 118 57
159 8z m250 0 c24 -27 28 -36 23 -72 -7 -52 -44 -86 -93 -86 -46 0 -70 14 -89
50 -22 42 -19 74 10 109 42 49 102 49 149 -1z m1959 15 c9 -9 17 -20 17 -25 0
-12 -44 -10 -57 3 -12 12 -33 4 -33 -12 0 -5 12 -15 28 -21 62 -27 79 -63 45
-100 -20 -23 -80 -24 -105 -1 -26 23 -23 43 7 43 14 0 25 -4 25 -10 0 -5 9
-10 20 -10 34 0 22 25 -22 45 -39 18 -43 24 -43 55 0 27 6 37 25 47 28 15 67
9 93 -14z m-3301 -41 l38 -57 0 58 c0 54 1 57 25 57 25 0 25 0 25 -95 0 -95 0
-95 -25 -95 -19 0 -33 13 -62 57 l-38 57 -3 -57 c-3 -53 -5 -57 -27 -57 -25 0
-25 1 -25 95 l0 95 28 0 c22 0 34 -11 64 -58z m288 38 c0 -17 -7 -20 -40 -20
-29 0 -40 -4 -40 -15 0 -10 10 -15 30 -15 23 0 30 -4 30 -20 0 -16 -7 -20 -30
-20 -28 0 -30 -2 -30 -40 0 -36 -2 -40 -25 -40 -25 0 -25 0 -25 95 l0 95 65 0
c58 0 65 -2 65 -20z m120 -75 c0 -95 0 -95 -25 -95 -25 0 -25 0 -25 95 0 95 0
95 25 95 25 0 25 0 25 -95z m125 78 c-4 -10 -10 -26 -12 -35 -3 -10 -14 -18
-25 -18 -14 0 -18 5 -14 16 3 9 6 24 6 35 0 14 7 19 26 19 21 0 25 -3 19 -17z
m987 -45 l26 -63 17 40 c10 22 21 50 26 63 6 16 17 22 39 22 l30 0 0 -95 c0
-95 0 -95 -25 -95 -23 0 -25 3 -26 53 l0 52 -20 -53 c-27 -68 -53 -69 -80 -2
l-18 45 0 -47 c-1 -44 -3 -48 -26 -48 -25 0 -25 0 -25 95 l0 95 28 0 c25 0 31
-7 54 -62z m340 45 c42 -38 8 -103 -54 -103 -25 0 -28 -3 -28 -35 0 -31 -3
-35 -25 -35 -25 0 -25 0 -25 95 l0 95 57 0 c38 0 62 -5 75 -17z m138 -18 c0
-33 2 -35 35 -35 33 0 35 2 35 35 0 31 3 35 25 35 25 0 25 0 25 -95 0 -95 0
-95 -25 -95 -22 0 -25 4 -25 40 0 39 -1 40 -35 40 -34 0 -35 -1 -35 -40 0 -36
-2 -40 -25 -40 -25 0 -25 0 -25 95 0 95 0 95 25 95 22 0 25 -4 25 -35z m249
-2 l19 -38 18 38 c13 27 24 37 41 37 13 0 23 -2 23 -5 0 -3 -13 -32 -30 -65
-16 -33 -30 -73 -30 -90 0 -25 -4 -30 -25 -30 -22 0 -25 4 -25 35 0 20 -14 62
-30 95 l-30 60 25 0 c18 0 29 -9 44 -37z m409 25 c15 -15 16 -50 1 -65 -8 -8
-7 -17 5 -34 21 -30 20 -35 -4 -59 -16 -16 -33 -20 -80 -20 l-60 0 0 95 0 95
63 0 c36 0 68 -5 75 -12z m210 -5 c-2 -13 -14 -19 -41 -21 -47 -4 -51 -29 -5
-34 22 -2 34 -9 36 -20 3 -15 -4 -18 -32 -18 -29 0 -36 -4 -36 -19 0 -16 8
-20 37 -23 27 -2 39 -8 41 -20 3 -16 -5 -18 -57 -18 l-61 0 0 95 0 95 61 0
c52 0 60 -2 57 -17z m216 -8 c21 -19 26 -33 26 -69 0 -37 -5 -48 -31 -70 -25
-21 -41 -26 -85 -26 l-54 0 0 95 0 95 59 0 c48 0 63 -4 85 -25z m-3406 -264
c3 -10 -2 -12 -22 -7 -33 8 -34 -2 0 -14 19 -7 25 -16 22 -33 -4 -28 -48 -36
-69 -11 -13 16 -12 17 14 10 16 -4 27 -2 27 4 0 5 -4 10 -8 10 -21 0 -43 27
-36 43 8 22 65 20 72 -2z m142 -21 c0 -33 3 -40 20 -40 11 0 20 -4 20 -10 0
-5 -13 -10 -30 -10 -29 0 -30 1 -30 50 0 28 5 50 10 50 6 0 10 -18 10 -40z
m215 30 c-3 -5 -13 -10 -21 -10 -8 0 -14 -4 -14 -10 0 -5 7 -10 15 -10 8 0 15
-4 15 -10 0 -5 -7 -10 -15 -10 -8 0 -15 -4 -15 -10 0 -5 9 -10 20 -10 11 0 20
-4 20 -10 0 -5 -16 -10 -35 -10 l-35 0 0 50 0 50 36 0 c21 0 33 -4 29 -10z
m185 0 c0 -5 -9 -10 -20 -10 -11 0 -20 -4 -20 -10 0 -5 7 -10 15 -10 8 0 15
-4 15 -10 0 -5 -7 -10 -15 -10 -8 0 -15 -4 -15 -10 0 -5 9 -10 20 -10 11 0 20
-4 20 -10 0 -5 -16 -10 -35 -10 l-35 0 0 50 0 50 35 0 c19 0 35 -4 35 -10z
m185 -20 c0 -18 -6 -26 -22 -28 -15 -2 -23 -10 -23 -23 0 -10 -4 -19 -10 -19
-5 0 -10 23 -10 51 l0 50 33 -3 c27 -2 32 -7 32 -28z m285 11 c0 -29 18 -35
22 -9 5 37 35 34 44 -4 l8 -33 5 29 c3 16 12 31 19 34 15 5 15 -11 1 -61 -12
-43 -42 -49 -47 -9 -4 26 -22 20 -22 -9 0 -31 -36 -24 -44 9 -3 15 -8 37 -12
50 -5 16 -2 22 10 22 9 0 16 -8 16 -19z m290 10 c0 -5 -10 -12 -22 -14 l-23
-4 23 -8 c27 -9 29 -25 2 -25 -11 0 -20 -4 -20 -10 0 -5 9 -10 20 -10 11 0 20
-4 20 -10 0 -5 -13 -10 -30 -10 -29 0 -30 1 -30 50 0 49 1 50 30 50 17 0 30
-4 30 -9z m150 -31 c0 -29 4 -40 15 -40 8 0 15 -4 15 -10 0 -5 -13 -10 -30
-10 -29 0 -30 1 -30 50 0 38 4 50 15 50 11 0 15 -11 15 -40z m170 0 c0 -29 4
-40 15 -40 8 0 15 -4 15 -10 0 -5 -13 -10 -30 -10 -29 0 -30 1 -30 50 0 38 4
50 15 50 11 0 15 -11 15 -40z m450 21 c0 -29 18 -35 22 -9 5 37 35 34 44 -4
l8 -33 5 29 c3 16 12 31 19 34 15 5 15 -11 1 -61 -12 -43 -42 -49 -47 -9 -4
26 -22 20 -22 -9 0 -31 -36 -24 -44 9 -3 15 -8 37 -12 50 -5 16 -2 22 10 22 9
0 16 -8 16 -19z m311 -33 c19 -49 14 -58 -21 -36 -15 10 -22 10 -32 0 -20 -20
-31 -14 -24 13 23 89 48 97 77 23z m159 35 c1 -17 1 -17 14 0 13 17 36 24 36
10 0 -3 -7 -14 -15 -23 -14 -15 -13 -20 6 -43 23 -30 7 -37 -23 -10 -17 15
-18 15 -18 0 0 -10 -7 -17 -15 -17 -11 0 -15 12 -15 50 0 38 4 50 15 50 8 0
15 -8 15 -17z m240 7 c0 -5 -9 -10 -20 -10 -27 0 -25 -18 3 -23 l22 -4 -22 -8
c-28 -9 -30 -25 -3 -25 11 0 20 -4 20 -10 0 -5 -13 -10 -30 -10 -29 0 -30 1
-30 50 0 49 1 50 30 50 17 0 30 -4 30 -10z m282 -27 c2 -21 8 -38 13 -38 6 0
11 17 13 38 4 47 32 53 32 6 0 -42 -17 -69 -43 -69 -33 0 -47 19 -47 62 0 52
28 53 32 1z m243 7 c0 -18 -6 -26 -22 -28 -15 -2 -23 -10 -23 -23 0 -10 -4
-19 -10 -19 -5 0 -10 23 -10 51 l0 50 33 -3 c27 -2 32 -7 32 -28z m-1515 -57
c0 -14 -19 -38 -25 -32 -8 8 5 39 16 39 5 0 9 -3 9 -7z m-800 -163 c0 -38 -4
-50 -15 -50 -11 0 -15 12 -15 50 0 38 4 50 15 50 11 0 15 -12 15 -50z m169 23
l20 -28 1 28 c0 15 5 27 10 27 6 0 10 -22 10 -50 0 -57 -16 -66 -42 -22 l-17
27 -1 -27 c0 -18 -5 -28 -15 -28 -11 0 -15 12 -15 50 0 58 16 66 49 23z m369
8 c3 -10 -2 -12 -22 -7 -33 8 -34 -2 0 -14 19 -7 25 -16 22 -33 -4 -28 -48
-36 -69 -11 -13 16 -12 17 14 10 16 -4 27 -2 27 4 0 5 -4 10 -8 10 -21 0 -43
27 -36 43 8 22 65 20 72 -2z m192 9 c0 -5 -4 -10 -10 -10 -5 0 -10 -18 -10
-40 0 -29 -4 -40 -15 -40 -11 0 -15 11 -15 40 0 29 -4 40 -15 40 -8 0 -15 5
-15 10 0 6 18 10 40 10 22 0 40 -4 40 -10z m146 -5 c4 -8 10 -15 15 -15 5 0 9
7 9 15 0 8 7 15 16 15 12 0 14 -5 9 -17 -5 -10 -13 -33 -19 -50 -6 -18 -13
-33 -16 -33 -3 0 -15 23 -27 50 -18 41 -19 50 -7 50 8 0 17 -7 20 -15z m194
-25 c0 -33 3 -40 20 -40 11 0 20 -4 20 -10 0 -5 -13 -10 -30 -10 -29 0 -30 1
-30 50 0 28 5 50 10 50 6 0 10 -18 10 -40z m215 30 c-3 -5 -13 -10 -21 -10 -8
0 -14 -4 -14 -10 0 -5 7 -10 15 -10 8 0 15 -4 15 -10 0 -5 -7 -10 -15 -10 -8
0 -15 -4 -15 -10 0 -5 9 -10 20 -10 11 0 20 -4 20 -10 0 -5 -16 -10 -35 -10
l-35 0 0 50 0 50 36 0 c21 0 33 -4 29 -10z"/>
<path d="M852 728 c-17 -17 -15 -64 4 -83 39 -39 100 17 76 69 -13 28 -58 36
-80 14z"/>
<path d="M2370 721 c-15 -30 -12 -56 10 -76 44 -40 98 13 71 71 -14 31 -65 34
-81 5z"/>
<path d="M2920 720 c0 -15 7 -20 25 -20 18 0 25 5 25 20 0 15 -7 20 -25 20
-18 0 -25 -5 -25 -20z"/>
<path d="M3710 725 c0 -9 9 -15 25 -15 16 0 25 6 25 15 0 9 -9 15 -25 15 -16
0 -25 -6 -25 -15z"/>
<path d="M3710 650 c0 -17 5 -21 28 -18 16 2 27 9 27 18 0 9 -11 16 -27 18
-23 3 -28 -1 -28 -18z"/>
<path d="M4130 685 c0 -43 3 -55 16 -55 33 0 54 20 54 53 0 39 -15 57 -47 57
-21 0 -23 -4 -23 -55z"/>
<path d="M1500 480 c0 -5 7 -10 15 -10 8 0 15 5 15 10 0 6 -7 10 -15 10 -8 0
-15 -4 -15 -10z"/>
<path d="M3160 465 c0 -8 4 -15 10 -15 5 0 7 7 4 15 -4 8 -8 15 -10 15 -2 0
-4 -7 -4 -15z"/>
<path d="M4080 480 c0 -5 7 -10 15 -10 8 0 15 5 15 10 0 6 -7 10 -15 10 -8 0
-15 -4 -15 -10z"/>
</g>
</svg>
